<svg width="15" height="15" viewBox="0 0 15 15" fill="none" xmlns="http://www.w3.org/2000/svg">
<path d="M7.03238 0.544114C7.28993 0.714885 7.71137 0.714885 7.96853 0.544114L8.64863 0.0922391C8.90603 -0.0787666 9.25194 -0.00496784 9.41747 0.256038L9.85493 0.945949C10.0205 1.20681 10.4052 1.37811 10.7098 1.32657L11.515 1.19014C11.8198 1.13855 12.1061 1.34635 12.151 1.65206L12.2704 2.45869C12.3157 2.76446 12.5972 3.07797 12.8966 3.15508L13.6868 3.35887C13.9862 3.43627 14.163 3.74315 14.0798 4.04078L13.861 4.82497C13.7779 5.12257 13.9079 5.52344 14.15 5.71559L14.7914 6.22439C15.0335 6.41655 15.0703 6.76838 14.8732 7.00665L14.3525 7.63521C14.1556 7.87325 14.1116 8.29222 14.2546 8.56612L14.6327 9.28905C14.7758 9.56309 14.6667 9.89971 14.3899 10.0371L13.6584 10.4002C13.3816 10.5376 13.1712 10.9026 13.1904 11.211L13.241 12.0253C13.2605 12.3335 13.0235 12.5968 12.7145 12.61L11.8991 12.6445C11.5904 12.6577 11.2497 12.9055 11.1418 13.1953L10.8581 13.9595C10.7502 14.2494 10.427 14.3936 10.1396 14.2799L9.37997 13.9796C9.0928 13.8658 8.68068 13.9533 8.46438 14.1742L7.89386 14.7569C7.67747 14.9776 7.32371 14.9776 7.10718 14.7572L6.53574 14.1741C6.3193 13.9534 5.90718 13.8659 5.61983 13.9796L4.86055 14.2799C4.57323 14.3937 4.24997 14.2495 4.14228 13.9596L3.85795 13.1954C3.75017 12.9057 3.40945 12.6578 3.1006 12.6446L2.2855 12.6101C1.97657 12.5969 1.73979 12.3335 1.75907 12.0253L1.81007 11.211C1.82926 10.9027 1.61853 10.5377 1.34176 10.4002L0.610512 10.0371C0.333774 9.89974 0.22435 9.56321 0.367524 9.28911L0.745687 8.56618C0.888773 8.29228 0.844769 7.87334 0.647514 7.6355L0.126762 7.00612C-0.0703472 6.76823 -0.0334331 6.4164 0.208588 6.22425L0.850131 5.71545C1.09215 5.52329 1.22229 5.12266 1.13926 4.82491L0.919887 4.0404C0.836801 3.7428 1.01364 3.43612 1.31282 3.35919L2.10354 3.15496C2.40272 3.07794 2.68464 2.76443 2.72979 2.45866L2.84911 1.65203C2.89435 1.34632 3.18055 1.13852 3.48518 1.19011L4.29046 1.32654C4.59518 1.37808 4.97987 1.20678 5.14517 0.94592L5.58242 0.256009C5.74771 -0.00499712 6.09386 -0.0787959 6.35146 0.0922098L7.03238 0.544114Z" fill="#90DEA9"/>
<path d="M12.3529 7.46945C12.3529 10.1497 10.1799 12.3225 7.49985 12.3225C4.81995 12.3225 2.64697 10.1497 2.64697 7.46945C2.64697 4.78999 4.81986 2.61719 7.49985 2.61719C10.1799 2.61719 12.3529 4.78999 12.3529 7.46945Z" fill="#71BF8C"/>
<path d="M6.69103 9.73628L4.74854 7.79369L5.3957 7.14623L6.69103 8.44133L9.60464 5.52734L10.2518 6.17504L6.69103 9.73628Z" fill="white"/>
</svg>
